<?xml version="1.0" encoding="utf-8"?>
<!-- Generator: Adobe Illustrator 26.4.1, SVG Export Plug-In . SVG Version: 6.00 Build 0)  -->
<svg version="1.0" id="Layer_1" xmlns="http://www.w3.org/2000/svg" xmlns:xlink="http://www.w3.org/1999/xlink" x="0px" y="0px"
	 viewBox="0 0 456 456" style="enable-background:new 0 0 456 456;" xml:space="preserve">
<style type="text/css">
	.st0{fill:#EB2045;}
	.st1{fill:#6BBE45;}
	.st2{fill:none;}
</style>
<g>
	<path class="st0" d="M122.7,213.7v-0.2c0-0.1,0.1-0.1,0.1-0.2c0.9-1.3,1.8-2.5,2.7-3.8c0.7-0.9,11.8-15.6,13.1-16.9
		c0.1-0.1,0.4-0.3,0.7-0.4c0.4,0,0.8,0.2,1.1,0.4c27,27.3,54.1,54.6,81.1,81.9c0.1,0.1,0.6,0.6,0.6,1.5c-0.1,0.9-0.8,1.4-0.9,1.4
		c-6.9,5.3-13,9.9-20,15.2c-0.2,0.1-0.8,0.5-1.6,0.5c-0.9,0-1.5-0.4-1.7-0.6c-1-1.1-2.5-2.8-4.4-4.9c-4.3-4.6-7.2-7.4-9.5-9.9
		c-5.8-6.2-11.3-12.6-17.1-18.6c-3.4-3.6-8-8.2-8-8.2c-0.8-0.8-1.5-1.5-1.6-1.6C157.2,249.4,122.6,214.1,122.7,213.7z"/>
	<path class="st0" d="M220.4,195.8c-4.1-2.8-8.4-5.3-13-7.4c-1.5-0.7-2.4-1-4.1-1.7c-1.5-0.6-3-1.1-4.6-1.5
		c-2.4-0.7-4.8-1.3-7.2-1.8c-1.6-0.3-3.1-0.6-4.7-0.8c-0.1,0-0.6-0.1-0.7-0.1l0,0l0,0l0,0l0,0l0,0c-0.1,0-0.2,0-0.3,0
		c-0.5-0.1-0.9-0.1-1.4-0.2c-1.2-0.1-2.5-0.2-3.7-0.3c-9.2-0.6-18.3,0.4-26.8,3.4l72.9,81.1C224.8,242.7,222.4,219.4,220.4,195.8z"
		/>
	<path class="st0" d="M222.1,185.9c-6-2.9-11.7-6.2-17.8-8.6c-22.9-9-45.6-8.8-68,1.1c-1.8,0.8-3.6,1.6-5.4,2.5
		c-0.4,0.2-0.7,0.4-1.1,0.7c-0.8,0.6-1.6,1.4-2.1,2.3c-4.9,7.6-9.6,15.2-14.4,22.9c-3.8,6.1-3.4,9,1.3,14
		c13.1,13.7,26.2,27.4,39.3,41.2c8.7,9.1,25,26.2,36.7,38.6l-6.9,4.8c-10-10.5-22.3-23.4-30.1-31.5c-15-15.8-30-31.6-45.1-47.3
		c-6.8-7-7.6-14.8-2.3-23.4c3.4-5.5,6.6-11,10.2-16.3c2.7-3.9,4.7-8,5.8-12.4c0.8-3.1,1.1-6.3,0.7-9.7v-0.3
		c-0.2-2.6,0.6-4.9,2.3-6.9c3.6-4.4,8.3-5.3,14.3-2.5c5-6.3,10.7-7,17.5-2.3c2.5-2.6,5.3-3.9,8.8-3.6c3.6,0.3,6.1,2.4,8.3,5.4
		c2.8-2.5,5.8-3.6,9.2-3c3.5,0.6,5.9,3,7.9,6c3.1-2,6.3-2.7,9.5-1.5s5.5,3.6,7,6.8c6.6-1.7,10.6-0.1,13.9,5.2
		C224.7,173.2,224.8,181.7,222.1,185.9z"/>
	<g>
		<path class="st1" d="M348.3,301.2c-14.5-0.1-28.3-0.2-42-0.4c-1,0-2.2-0.9-3-1.7c-22.3-23.3-44.5-46.7-66.7-70l43.5,0.3
			c4.3,4.5,8.6,9.1,12.9,13.6c17.6,18.5,35.1,36.9,52.7,55.4C346.5,299.2,347.2,299.8,348.3,301.2z"/>
		<path class="st1" d="M301.7,232.7c3.2-0.3,6.1-0.3,8.9-0.9c9.6-2,16.3-11.1,15.7-20.9c-0.7-10.7-7.9-19.1-18-19.6
			c-12.6-0.6-25.3-0.8-38-0.4c-6.2,0.2-10.7-1.5-14.8-6.4c-6.3-7.4-13.3-14.2-20.1-21.2c-0.6-0.7-1.2-1.4-2.3-2.6c1.5,0,2.4,0,3.3,0
			c23.6,0.2,47.3,0.3,70.9,0.5c29,0.2,51.7,27.9,47.3,57.7c-2.5,17.3-11.6,29.8-26.3,38.1c-1.8,1-3,1.1-4.5-0.7
			C316.7,248.4,309.2,240.7,301.7,232.7z"/>
	</g>
	<rect x="90.6" y="92.6" class="st2" width="274.9" height="274.9"/>
	<path class="st0" d="M223.1,200.2"/>
</g>
</svg>
