<?xml version="1.0" encoding="utf-8"?>
<!-- Generator: Adobe Illustrator 26.4.1, SVG Export Plug-In . SVG Version: 6.00 Build 0)  -->
<svg version="1.1" id="Layer_1" xmlns:serif="http://www.serif.com/"
	 xmlns="http://www.w3.org/2000/svg" xmlns:xlink="http://www.w3.org/1999/xlink" x="0px" y="0px" viewBox="0 0 456 456"
	 style="enable-background:new 0 0 456 456;" xml:space="preserve">
<style type="text/css">
	.st0{fill:#ED1943;}
	.st1{fill:#11FF00;}
	.st2{fill:none;}
</style>
<path class="st0" d="M52.9,203.3v-0.3c0-0.2,0.2-0.2,0.2-0.3c1.5-2.2,3-4.2,4.5-6.3c1.2-1.5,19.6-25.9,21.8-28.1
	c0.2-0.2,0.7-0.5,1.2-0.7c0.7,0,1.3,0.3,1.8,0.7c44.9,45.4,89.9,90.7,134.8,136.1c0.2,0.2,1,1,1,2.5c-0.2,1.5-1.3,2.3-1.5,2.3
	c-11.5,8.8-21.6,16.5-33.2,25.3c-0.3,0.2-1.3,0.8-2.7,0.8c-1.5,0-2.5-0.7-2.8-1c-1.7-1.8-4.2-4.7-7.3-8.1
	c-7.1-7.6-12-12.3-15.8-16.5c-9.6-10.3-18.8-20.9-28.4-30.9c-5.7-6-13.3-13.6-13.3-13.6c-1.3-1.3-2.5-2.5-2.7-2.7
	C110.4,262.6,52.7,203.9,52.9,203.3z"/>
<path class="st0" d="M215.2,173.5c-6.8-4.7-14-8.8-21.6-12.3c-2.5-1.2-4-1.7-6.8-2.8c-2.5-1-5-1.8-7.6-2.5c-4-1.2-8-2.2-12-3
	c-2.7-0.5-5.2-1-7.8-1.3c-0.2,0-1-0.2-1.2-0.2l0,0l0,0l0,0l0,0l0,0c-0.2,0-0.3,0-0.5,0c-0.8-0.2-1.5-0.2-2.3-0.3
	c-2-0.2-4.2-0.3-6.1-0.5c-15.3-1-30.4,0.7-44.5,5.7L225.9,291C222.5,251.5,218.6,212.9,215.2,173.5z"/>
<path class="st0" d="M218.1,157.2c-10-4.8-19.4-10.3-29.6-14.3c-38.1-15-75.8-14.6-113,1.8c-3,1.3-6,2.7-9,4.2
	c-0.7,0.3-1.2,0.7-1.8,1.2c-1.3,1-2.7,2.3-3.5,3.8c-8.1,12.6-16,25.3-23.9,38.1c-6.3,10.1-5.7,15,2.2,23.3
	c21.8,22.8,43.5,45.5,65.3,68.5c14.5,15.1,41.6,43.5,61,64.2l-11.5,8c-16.6-17.5-37.1-38.9-50-52.4c-24.9-26.3-49.9-52.5-75-78.6
	c-11.3-11.6-12.6-24.6-3.8-38.9c5.7-9.1,11-18.3,17-27.1c4.5-6.5,7.8-13.3,9.6-20.6c1.3-5.2,1.8-10.5,1.2-16.1v-0.5
	c-0.3-4.3,1-8.1,3.8-11.5c6-7.3,13.8-8.8,23.8-4.2c8.3-10.5,17.8-11.6,29.1-3.8c4.2-4.3,8.8-6.5,14.6-6c6,0.5,10.1,4,13.8,9
	c4.7-4.2,9.6-6,15.3-5c5.8,1,9.8,5,13.1,10c5.2-3.3,10.5-4.5,15.8-2.5c5.3,2,9.1,6,11.6,11.3c11-2.8,17.6-0.2,23.1,8.6
	C222.4,136,222.5,150.1,218.1,157.2z"/>
<g>
	<path class="st1" d="M428,348.7c-24.1-0.2-47-0.3-69.8-0.7c-1.7,0-3.7-1.5-5-2.8c-37.1-38.7-74-77.6-110.9-116.3l72.3,0.5
		c7.1,7.5,14.3,15.1,21.4,22.6c29.3,30.7,58.3,61.3,87.6,92.1C425,345.4,426.2,346.5,428,348.7z"/>
	<path class="st1" d="M350.4,234.9c5.3-0.5,10.1-0.5,14.8-1.5c16-3.3,27.1-18.4,26.1-34.7c-1.2-17.8-13.1-31.7-29.9-32.6
		c-20.9-1-42.1-1.3-63.2-0.7c-10.3,0.3-17.8-2.5-24.6-10.6c-10.5-12.3-22.1-23.6-33.4-35.2c-1-1.2-2-2.3-3.8-4.3c2.5,0,4,0,5.5,0
		c39.2,0.3,78.6,0.5,117.8,0.8c48.2,0.3,85.9,46.4,78.6,95.9c-4.2,28.8-19.3,49.5-43.7,63.3c-3,1.7-5,1.8-7.5-1.2
		C375.3,260.9,363,248.2,350.4,234.9z"/>
</g>
<rect x="-0.5" y="2" class="st2" width="456.9" height="456.9"/>
<path class="st0" d="M219.7,180.8"/>
</svg>
